<?xml version="1.0"?>
<svg xmlns="http://www.w3.org/2000/svg" xmlns:xlink="http://www.w3.org/1999/xlink" xmlns:svgjs="http://svgjs.com/svgjs" version="1.1" width="512px" height="512px" x="0" y="0" viewBox="0 0 24 24" style="enable-background:new 0 0 512 512" xml:space="preserve"><g>
<g id="icon-gradient-blue-atlassian">
	<g id="Group_00000015332505950639294710000002390133098335324831_">
		<g id="Group_2">
			<path id="Vector" d="M7.134,11.081c-0.364-0.4-0.91-0.364-1.164,0.109L0.074,22.981C-0.144,23.454,0.183,24,0.693,24h8.188     c0.255,0,0.509-0.146,0.619-0.4C11.283,19.961,10.227,14.393,7.134,11.081z" fill="#eddfdf" data-original="#000000"/>
			<path id="Vector_2" d="M11.429,0.382c-3.275,5.204-3.057,10.99-0.91,15.321c2.183,4.331,3.821,7.679,3.967,7.897     c0.109,0.255,0.364,0.4,0.619,0.4h8.188c0.509,0,0.873-0.546,0.619-1.019c0,0-11.027-22.053-11.318-22.599     C12.375-0.127,11.756-0.127,11.429,0.382z" fill="#eddfdf" data-original="#000000"/>
		</g>
	</g>
</g>















</g></svg>
